<svg width="542" height="328" viewBox="0 0 542 328" fill="none" xmlns="http://www.w3.org/2000/svg">
<path d="M338.494 92.5476C343.249 82.3865 345.381 70.7505 344.069 58.295C340.954 29.9424 318.818 5.85081 290.616 1.09806C280.18 -0.792256 269.441 -0.130027 259.317 3.02819C249.193 6.18641 239.984 11.7468 232.476 19.2345C224.969 26.7222 219.386 35.9147 216.204 46.0271C213.023 56.1395 212.337 66.8713 214.206 77.306C219.125 105.495 243.065 127.62 271.431 130.734C283.893 132.045 295.371 129.914 305.701 125.161L344.397 164.003L305.701 202.68C295.535 197.928 283.893 195.797 271.431 197.108C243.065 200.222 218.961 222.347 214.206 250.536C212.321 260.958 212.99 271.682 216.155 281.79C219.32 291.898 224.887 301.09 232.38 308.579C239.872 316.068 249.069 321.633 259.182 324.796C269.295 327.959 280.024 328.627 290.452 326.744C318.654 321.827 340.79 297.899 343.905 269.547C345.217 257.091 343.086 245.619 338.33 235.294L377.191 196.78L501.643 321.171C516.236 335.757 541.16 325.432 541.16 304.783V304.619C541.16 298.555 538.7 292.655 534.437 288.23L338.494 92.5476ZM278.81 98.4476C260.773 98.4476 246.016 83.8615 246.016 65.6699C246.016 47.4784 260.773 32.8923 278.81 32.8923C296.846 32.8923 311.604 47.4784 311.604 65.6699C311.604 83.8615 296.846 98.4476 278.81 98.4476ZM278.81 295.113C260.773 295.113 246.016 280.527 246.016 262.336C246.016 244.144 260.773 229.558 278.81 229.558C296.846 229.558 311.604 244.144 311.604 262.336C311.604 280.527 296.846 295.113 278.81 295.113ZM377.191 172.197C372.6 172.197 368.993 168.592 368.993 164.003C368.993 159.414 372.6 155.808 377.191 155.808C381.782 155.808 385.389 159.414 385.389 164.003C385.389 168.592 381.782 172.197 377.191 172.197ZM501.643 6.83414L393.588 114.836L426.382 147.614L534.437 39.6117C538.7 35.3507 541.16 29.4507 541.16 23.2229V23.0591C541.16 2.57305 516.236 -7.7519 501.643 6.83414Z" fill="#F8F3F7"/>
<path fill-rule="evenodd" clip-rule="evenodd" d="M91.4693 255.583C96.9123 254.289 101.739 250.589 104.278 245.098L112.157 228.063L172.347 97.9175C179.405 82.6567 164.644 66.4273 148.93 72.1905L148.805 72.2362C144.191 73.9286 140.382 77.4612 138.195 81.9651L87.0412 192.694L35.7718 81.9795C28.7065 66.7222 6.88028 67.6835 1.16069 83.5177L1.1153 83.6433C-0.564259 88.2931 -0.32673 93.5035 1.6919 98.0864L69.8649 245.142C73.7372 253.495 82.9007 257.694 91.4693 255.583ZM91.4693 255.583C92.6549 255.291 93.8291 254.878 94.9763 254.339C104.34 249.936 108.374 238.761 104.005 229.325L96.0255 212.095L87.0412 192.694L70.1243 229.312C65.7648 238.749 69.8048 249.917 79.1682 254.314C83.1617 256.189 87.4811 256.532 91.4693 255.583ZM93.1858 239.516C94.4568 235.998 92.7103 232.226 89.2165 230.945C85.7227 229.664 81.9789 231.422 80.7078 234.94C79.4368 238.459 81.1833 242.23 84.6771 243.512C88.1709 244.793 91.9147 243.035 93.1858 239.516Z" fill="#F8F3F7"/>
</svg>
